<mxfile host="app.diagrams.net" modified="2023-04-22T03:28:40.268Z" agent="Mozilla/5.0 (Windows NT 10.0; Win64; x64) AppleWebKit/537.36 (KHTML, like Gecko) Chrome/112.0.0.0 Safari/537.36 Edg/112.0.1722.48" etag="EeWDzv6_OfX1OcdeSyF_" version="21.2.1" type="device">
  <diagram name="第 1 页" id="SX93OOZ6ND0UXD5Mn1mA">
    <mxGraphModel dx="1050" dy="581" grid="1" gridSize="10" guides="1" tooltips="1" connect="1" arrows="1" fold="1" page="1" pageScale="1" pageWidth="827" pageHeight="1169" math="0" shadow="0">
      <root>
        <mxCell id="0" />
        <mxCell id="1" parent="0" />
        <mxCell id="P-tXXhi0y3CasbpAHLjE-1" value="0x603010" style="rounded=0;whiteSpace=wrap;html=1;" parent="1" vertex="1">
          <mxGeometry x="200" y="280" width="80" height="80" as="geometry" />
        </mxCell>
        <mxCell id="P-tXXhi0y3CasbpAHLjE-2" value="0x6030d0" style="rounded=0;whiteSpace=wrap;html=1;" parent="1" vertex="1">
          <mxGeometry x="200" y="600" width="80" height="81" as="geometry" />
        </mxCell>
        <mxCell id="P-tXXhi0y3CasbpAHLjE-3" value="0x603040" style="rounded=0;whiteSpace=wrap;html=1;" parent="1" vertex="1">
          <mxGeometry x="200" y="360" width="80" height="80" as="geometry" />
        </mxCell>
        <mxCell id="P-tXXhi0y3CasbpAHLjE-4" value="0x6030a0" style="rounded=0;whiteSpace=wrap;html=1;" parent="1" vertex="1">
          <mxGeometry x="200" y="520" width="80" height="80" as="geometry" />
        </mxCell>
        <mxCell id="P-tXXhi0y3CasbpAHLjE-5" value="0x603070" style="rounded=0;whiteSpace=wrap;html=1;" parent="1" vertex="1">
          <mxGeometry x="200" y="440" width="80" height="80" as="geometry" />
        </mxCell>
        <mxCell id="P-tXXhi0y3CasbpAHLjE-6" value="0x603100" style="rounded=0;whiteSpace=wrap;html=1;" parent="1" vertex="1">
          <mxGeometry x="200" y="681" width="80" height="80" as="geometry" />
        </mxCell>
        <mxCell id="P-tXXhi0y3CasbpAHLjE-7" value="0x6033130" style="rounded=0;whiteSpace=wrap;html=1;" parent="1" vertex="1">
          <mxGeometry x="200" y="761" width="80" height="80" as="geometry" />
        </mxCell>
        <mxCell id="P-tXXhi0y3CasbpAHLjE-8" value="0x603160" style="rounded=0;whiteSpace=wrap;html=1;" parent="1" vertex="1">
          <mxGeometry x="200" y="841" width="80" height="80" as="geometry" />
        </mxCell>
        <mxCell id="P-tXXhi0y3CasbpAHLjE-13" value="prev" style="text;html=1;strokeColor=none;fillColor=none;align=center;verticalAlign=middle;whiteSpace=wrap;rounded=0;" parent="1" vertex="1">
          <mxGeometry x="360" y="881" width="40" height="40" as="geometry" />
        </mxCell>
        <mxCell id="P-tXXhi0y3CasbpAHLjE-14" value="next" style="text;html=1;strokeColor=none;fillColor=none;align=center;verticalAlign=middle;whiteSpace=wrap;rounded=0;" parent="1" vertex="1">
          <mxGeometry x="400" y="881" width="40" height="40" as="geometry" />
        </mxCell>
        <mxCell id="P-tXXhi0y3CasbpAHLjE-15" value="hprev" style="text;html=1;strokeColor=none;fillColor=none;align=center;verticalAlign=middle;whiteSpace=wrap;rounded=0;" parent="1" vertex="1">
          <mxGeometry x="440" y="881" width="40" height="40" as="geometry" />
        </mxCell>
        <mxCell id="P-tXXhi0y3CasbpAHLjE-16" value="hnext" style="text;html=1;strokeColor=none;fillColor=none;align=center;verticalAlign=middle;whiteSpace=wrap;rounded=0;" parent="1" vertex="1">
          <mxGeometry x="480" y="881" width="40" height="40" as="geometry" />
        </mxCell>
        <mxCell id="P-tXXhi0y3CasbpAHLjE-19" value="^" style="rounded=0;whiteSpace=wrap;html=1;" parent="1" vertex="1">
          <mxGeometry x="200" y="160" width="40" height="40" as="geometry" />
        </mxCell>
        <mxCell id="P-tXXhi0y3CasbpAHLjE-20" value="6031c0" style="rounded=0;whiteSpace=wrap;html=1;" parent="1" vertex="1">
          <mxGeometry x="240" y="160" width="40" height="40" as="geometry" />
        </mxCell>
        <mxCell id="P-tXXhi0y3CasbpAHLjE-21" value="^" style="rounded=0;whiteSpace=wrap;html=1;" parent="1" vertex="1">
          <mxGeometry x="280" y="160" width="40" height="40" as="geometry" />
        </mxCell>
        <mxCell id="P-tXXhi0y3CasbpAHLjE-22" value="^" style="rounded=0;whiteSpace=wrap;html=1;" parent="1" vertex="1">
          <mxGeometry x="320" y="160" width="40" height="40" as="geometry" />
        </mxCell>
        <mxCell id="P-tXXhi0y3CasbpAHLjE-23" value="head 0x603190" style="text;html=1;strokeColor=none;fillColor=none;align=center;verticalAlign=middle;whiteSpace=wrap;rounded=0;" parent="1" vertex="1">
          <mxGeometry x="230" y="130" width="100" height="30" as="geometry" />
        </mxCell>
        <mxCell id="P-tXXhi0y3CasbpAHLjE-44" value="603250" style="rounded=0;whiteSpace=wrap;html=1;" parent="1" vertex="1">
          <mxGeometry x="361" y="520" width="40" height="40" as="geometry" />
        </mxCell>
        <mxCell id="P-tXXhi0y3CasbpAHLjE-45" value="^" style="rounded=0;whiteSpace=wrap;html=1;" parent="1" vertex="1">
          <mxGeometry x="401" y="520" width="40" height="40" as="geometry" />
        </mxCell>
        <mxCell id="P-tXXhi0y3CasbpAHLjE-46" value="6030a0" style="rounded=0;whiteSpace=wrap;html=1;" parent="1" vertex="1">
          <mxGeometry x="441" y="520" width="40" height="40" as="geometry" />
        </mxCell>
        <mxCell id="P-tXXhi0y3CasbpAHLjE-47" value="603280" style="rounded=0;whiteSpace=wrap;html=1;" parent="1" vertex="1">
          <mxGeometry x="481" y="520" width="39" height="40" as="geometry" />
        </mxCell>
        <mxCell id="P-tXXhi0y3CasbpAHLjE-49" value="" style="endArrow=classic;html=1;rounded=0;edgeStyle=orthogonalEdgeStyle;curved=1;entryX=0.5;entryY=0;entryDx=0;entryDy=0;" parent="1" edge="1">
          <mxGeometry width="50" height="50" relative="1" as="geometry">
            <mxPoint x="280" y="550" as="sourcePoint" />
            <mxPoint x="500" y="560" as="targetPoint" />
            <Array as="points">
              <mxPoint x="300" y="550" />
              <mxPoint x="300" y="590" />
              <mxPoint x="500" y="590" />
            </Array>
          </mxGeometry>
        </mxCell>
        <mxCell id="P-tXXhi0y3CasbpAHLjE-53" value="603280" style="rounded=0;whiteSpace=wrap;html=1;" parent="1" vertex="1">
          <mxGeometry x="361" y="440" width="40" height="40" as="geometry" />
        </mxCell>
        <mxCell id="P-tXXhi0y3CasbpAHLjE-54" value="603220" style="rounded=0;whiteSpace=wrap;html=1;" parent="1" vertex="1">
          <mxGeometry x="401" y="440" width="40" height="40" as="geometry" />
        </mxCell>
        <mxCell id="P-tXXhi0y3CasbpAHLjE-55" value="603070" style="rounded=0;whiteSpace=wrap;html=1;" parent="1" vertex="1">
          <mxGeometry x="441" y="440" width="40" height="40" as="geometry" />
        </mxCell>
        <mxCell id="P-tXXhi0y3CasbpAHLjE-56" value="^" style="rounded=0;whiteSpace=wrap;html=1;" parent="1" vertex="1">
          <mxGeometry x="481" y="440" width="39" height="40" as="geometry" />
        </mxCell>
        <mxCell id="P-tXXhi0y3CasbpAHLjE-57" value="" style="endArrow=classic;html=1;rounded=0;edgeStyle=orthogonalEdgeStyle;curved=1;entryX=1;entryY=0.25;entryDx=0;entryDy=0;exitX=0.75;exitY=1;exitDx=0;exitDy=0;" parent="1" source="P-tXXhi0y3CasbpAHLjE-46" target="P-tXXhi0y3CasbpAHLjE-4" edge="1">
          <mxGeometry width="50" height="50" relative="1" as="geometry">
            <mxPoint x="471" y="570" as="sourcePoint" />
            <mxPoint x="290" y="550" as="targetPoint" />
            <Array as="points">
              <mxPoint x="471" y="580" />
              <mxPoint x="341" y="580" />
              <mxPoint x="341" y="540" />
            </Array>
          </mxGeometry>
        </mxCell>
        <mxCell id="P-tXXhi0y3CasbpAHLjE-58" value="" style="endArrow=classic;html=1;rounded=0;edgeStyle=orthogonalEdgeStyle;curved=1;entryX=1;entryY=0.25;entryDx=0;entryDy=0;" parent="1" edge="1">
          <mxGeometry width="50" height="50" relative="1" as="geometry">
            <mxPoint x="471" y="480" as="sourcePoint" />
            <mxPoint x="280" y="450" as="targetPoint" />
            <Array as="points">
              <mxPoint x="471" y="490" />
              <mxPoint x="341" y="490" />
              <mxPoint x="341" y="450" />
            </Array>
          </mxGeometry>
        </mxCell>
        <mxCell id="P-tXXhi0y3CasbpAHLjE-59" value="" style="endArrow=classic;html=1;rounded=0;edgeStyle=orthogonalEdgeStyle;curved=1;entryX=0.5;entryY=0;entryDx=0;entryDy=0;" parent="1" edge="1">
          <mxGeometry width="50" height="50" relative="1" as="geometry">
            <mxPoint x="280" y="470" as="sourcePoint" />
            <mxPoint x="500" y="480" as="targetPoint" />
            <Array as="points">
              <mxPoint x="300" y="470" />
              <mxPoint x="300" y="510" />
              <mxPoint x="500" y="510" />
            </Array>
          </mxGeometry>
        </mxCell>
        <mxCell id="P-tXXhi0y3CasbpAHLjE-60" value="" style="endArrow=classic;html=1;rounded=0;entryX=0.75;entryY=0;entryDx=0;entryDy=0;dashed=1;" parent="1" edge="1">
          <mxGeometry width="50" height="50" relative="1" as="geometry">
            <mxPoint x="420.5" y="480" as="sourcePoint" />
            <mxPoint x="420.5" y="520" as="targetPoint" />
          </mxGeometry>
        </mxCell>
        <mxCell id="P-tXXhi0y3CasbpAHLjE-61" value="" style="endArrow=classic;html=1;rounded=0;dashed=1;" parent="1" edge="1">
          <mxGeometry width="50" height="50" relative="1" as="geometry">
            <mxPoint x="379.5" y="520" as="sourcePoint" />
            <mxPoint x="379.5" y="480" as="targetPoint" />
          </mxGeometry>
        </mxCell>
        <mxCell id="P-tXXhi0y3CasbpAHLjE-62" value="6032b0" style="rounded=0;whiteSpace=wrap;html=1;" parent="1" vertex="1">
          <mxGeometry x="600" y="520" width="40" height="40" as="geometry" />
        </mxCell>
        <mxCell id="P-tXXhi0y3CasbpAHLjE-63" value="603250" style="rounded=0;whiteSpace=wrap;html=1;" parent="1" vertex="1">
          <mxGeometry x="640" y="520" width="40" height="40" as="geometry" />
        </mxCell>
        <mxCell id="P-tXXhi0y3CasbpAHLjE-64" value="603220" style="rounded=0;whiteSpace=wrap;html=1;" parent="1" vertex="1">
          <mxGeometry x="680" y="520" width="40" height="40" as="geometry" />
        </mxCell>
        <mxCell id="P-tXXhi0y3CasbpAHLjE-65" value="6031c0" style="rounded=0;whiteSpace=wrap;html=1;" parent="1" vertex="1">
          <mxGeometry x="720" y="520" width="39" height="40" as="geometry" />
        </mxCell>
        <mxCell id="P-tXXhi0y3CasbpAHLjE-66" value="" style="endArrow=classic;html=1;rounded=0;edgeStyle=orthogonalEdgeStyle;curved=1;entryX=1;entryY=0.25;entryDx=0;entryDy=0;" parent="1" target="P-tXXhi0y3CasbpAHLjE-47" edge="1">
          <mxGeometry width="50" height="50" relative="1" as="geometry">
            <mxPoint x="700" y="560" as="sourcePoint" />
            <mxPoint x="580" y="560" as="targetPoint" />
            <Array as="points">
              <mxPoint x="700" y="570" />
              <mxPoint x="580" y="570" />
              <mxPoint x="580" y="530" />
            </Array>
          </mxGeometry>
        </mxCell>
        <mxCell id="P-tXXhi0y3CasbpAHLjE-68" value="" style="endArrow=classic;html=1;rounded=0;entryX=0;entryY=0.75;entryDx=0;entryDy=0;" parent="1" edge="1">
          <mxGeometry width="50" height="50" relative="1" as="geometry">
            <mxPoint x="520" y="546" as="sourcePoint" />
            <mxPoint x="600" y="546" as="targetPoint" />
          </mxGeometry>
        </mxCell>
        <mxCell id="P-tXXhi0y3CasbpAHLjE-69" value="" style="endArrow=classic;html=1;rounded=0;entryX=0.5;entryY=0;entryDx=0;entryDy=0;dashed=1;edgeStyle=orthogonalEdgeStyle;curved=1;" parent="1" target="P-tXXhi0y3CasbpAHLjE-54" edge="1">
          <mxGeometry width="50" height="50" relative="1" as="geometry">
            <mxPoint x="660" y="520" as="sourcePoint" />
            <mxPoint x="710" y="470" as="targetPoint" />
            <Array as="points">
              <mxPoint x="660" y="400" />
              <mxPoint x="421" y="400" />
            </Array>
          </mxGeometry>
        </mxCell>
        <mxCell id="P-tXXhi0y3CasbpAHLjE-71" value="" style="endArrow=classic;html=1;rounded=0;edgeStyle=orthogonalEdgeStyle;curved=1;dashed=1;entryX=0.5;entryY=0;entryDx=0;entryDy=0;" parent="1" target="P-tXXhi0y3CasbpAHLjE-62" edge="1">
          <mxGeometry width="50" height="50" relative="1" as="geometry">
            <mxPoint x="375" y="440" as="sourcePoint" />
            <mxPoint x="620" y="510" as="targetPoint" />
            <Array as="points">
              <mxPoint x="375" y="420" />
              <mxPoint x="530" y="420" />
              <mxPoint x="530" y="440" />
              <mxPoint x="620" y="440" />
            </Array>
          </mxGeometry>
        </mxCell>
        <mxCell id="P-tXXhi0y3CasbpAHLjE-72" value="6032e0" style="rounded=0;whiteSpace=wrap;html=1;" parent="1" vertex="1">
          <mxGeometry x="361" y="841" width="40" height="40" as="geometry" />
        </mxCell>
        <mxCell id="P-tXXhi0y3CasbpAHLjE-73" value="603280" style="rounded=0;whiteSpace=wrap;html=1;" parent="1" vertex="1">
          <mxGeometry x="401" y="841" width="40" height="40" as="geometry" />
        </mxCell>
        <mxCell id="P-tXXhi0y3CasbpAHLjE-74" value="603160" style="rounded=0;whiteSpace=wrap;html=1;" parent="1" vertex="1">
          <mxGeometry x="441" y="841" width="40" height="40" as="geometry" />
        </mxCell>
        <mxCell id="P-tXXhi0y3CasbpAHLjE-75" value="6032e0" style="rounded=0;whiteSpace=wrap;html=1;" parent="1" vertex="1">
          <mxGeometry x="481" y="841" width="39" height="40" as="geometry" />
        </mxCell>
        <mxCell id="P-tXXhi0y3CasbpAHLjE-78" value="" style="endArrow=classic;html=1;rounded=0;entryX=0.5;entryY=1;entryDx=0;entryDy=0;dashed=1;" parent="1" target="P-tXXhi0y3CasbpAHLjE-63" edge="1">
          <mxGeometry width="50" height="50" relative="1" as="geometry">
            <mxPoint x="420" y="840" as="sourcePoint" />
            <mxPoint x="710" y="791" as="targetPoint" />
          </mxGeometry>
        </mxCell>
        <mxCell id="P-tXXhi0y3CasbpAHLjE-79" value="" style="endArrow=classic;html=1;rounded=0;entryX=0.5;entryY=0;entryDx=0;entryDy=0;dashed=1;" parent="1" target="P-tXXhi0y3CasbpAHLjE-72" edge="1">
          <mxGeometry width="50" height="50" relative="1" as="geometry">
            <mxPoint x="620" y="560" as="sourcePoint" />
            <mxPoint x="670" y="510" as="targetPoint" />
          </mxGeometry>
        </mxCell>
        <mxCell id="P-tXXhi0y3CasbpAHLjE-80" value="" style="endArrow=classic;html=1;rounded=0;edgeStyle=orthogonalEdgeStyle;curved=1;" parent="1" edge="1">
          <mxGeometry width="50" height="50" relative="1" as="geometry">
            <mxPoint x="461" y="881" as="sourcePoint" />
            <mxPoint x="280" y="861" as="targetPoint" />
            <Array as="points">
              <mxPoint x="461" y="901" />
              <mxPoint x="331" y="901" />
              <mxPoint x="331" y="861" />
            </Array>
          </mxGeometry>
        </mxCell>
        <mxCell id="P-tXXhi0y3CasbpAHLjE-81" value="" style="endArrow=classic;html=1;rounded=0;edgeStyle=orthogonalEdgeStyle;curved=1;entryX=0.5;entryY=0;entryDx=0;entryDy=0;" parent="1" edge="1">
          <mxGeometry width="50" height="50" relative="1" as="geometry">
            <mxPoint x="280" y="870" as="sourcePoint" />
            <mxPoint x="500" y="880" as="targetPoint" />
            <Array as="points">
              <mxPoint x="300" y="870" />
              <mxPoint x="300" y="910" />
              <mxPoint x="500" y="910" />
            </Array>
          </mxGeometry>
        </mxCell>
        <mxCell id="P-tXXhi0y3CasbpAHLjE-82" value="6031c0" style="rounded=0;whiteSpace=wrap;html=1;" parent="1" vertex="1">
          <mxGeometry x="600" y="841" width="40" height="40" as="geometry" />
        </mxCell>
        <mxCell id="P-tXXhi0y3CasbpAHLjE-83" value="6032b0" style="rounded=0;whiteSpace=wrap;html=1;" parent="1" vertex="1">
          <mxGeometry x="640" y="841" width="40" height="40" as="geometry" />
        </mxCell>
        <mxCell id="P-tXXhi0y3CasbpAHLjE-84" value="6032b0" style="rounded=0;whiteSpace=wrap;html=1;" parent="1" vertex="1">
          <mxGeometry x="680" y="841" width="40" height="40" as="geometry" />
        </mxCell>
        <mxCell id="P-tXXhi0y3CasbpAHLjE-85" value="^" style="rounded=0;whiteSpace=wrap;html=1;" parent="1" vertex="1">
          <mxGeometry x="720" y="841" width="39" height="40" as="geometry" />
        </mxCell>
        <mxCell id="P-tXXhi0y3CasbpAHLjE-86" value="" style="endArrow=classic;html=1;rounded=0;edgeStyle=orthogonalEdgeStyle;curved=1;entryX=1;entryY=0.25;entryDx=0;entryDy=0;" parent="1" edge="1">
          <mxGeometry width="50" height="50" relative="1" as="geometry">
            <mxPoint x="700" y="880" as="sourcePoint" />
            <mxPoint x="520" y="850" as="targetPoint" />
            <Array as="points">
              <mxPoint x="700" y="890" />
              <mxPoint x="580" y="890" />
              <mxPoint x="580" y="850" />
            </Array>
          </mxGeometry>
        </mxCell>
        <mxCell id="P-tXXhi0y3CasbpAHLjE-87" value="" style="endArrow=classic;html=1;rounded=0;entryX=0;entryY=0.75;entryDx=0;entryDy=0;" parent="1" edge="1">
          <mxGeometry width="50" height="50" relative="1" as="geometry">
            <mxPoint x="520" y="860.5" as="sourcePoint" />
            <mxPoint x="600" y="860.5" as="targetPoint" />
          </mxGeometry>
        </mxCell>
        <mxCell id="P-tXXhi0y3CasbpAHLjE-90" value="" style="endArrow=classic;html=1;rounded=0;edgeStyle=orthogonalEdgeStyle;curved=1;dashed=1;" parent="1" edge="1">
          <mxGeometry width="50" height="50" relative="1" as="geometry">
            <mxPoint x="663.75" y="841" as="sourcePoint" />
            <mxPoint x="418" y="841" as="targetPoint" />
            <Array as="points">
              <mxPoint x="664" y="781" />
              <mxPoint x="418" y="781" />
            </Array>
          </mxGeometry>
        </mxCell>
        <mxCell id="P-tXXhi0y3CasbpAHLjE-91" value="" style="endArrow=classic;html=1;rounded=0;edgeStyle=orthogonalEdgeStyle;curved=1;dashed=1;" parent="1" edge="1">
          <mxGeometry width="50" height="50" relative="1" as="geometry">
            <mxPoint x="380" y="841" as="sourcePoint" />
            <mxPoint x="630" y="840" as="targetPoint" />
            <Array as="points">
              <mxPoint x="380" y="810" />
              <mxPoint x="630" y="810" />
            </Array>
          </mxGeometry>
        </mxCell>
        <mxCell id="P-tXXhi0y3CasbpAHLjE-92" value="603190" style="rounded=0;whiteSpace=wrap;html=1;" parent="1" vertex="1">
          <mxGeometry x="840" y="520" width="40" height="40" as="geometry" />
        </mxCell>
        <mxCell id="P-tXXhi0y3CasbpAHLjE-93" value="6032e0" style="rounded=0;whiteSpace=wrap;html=1;" parent="1" vertex="1">
          <mxGeometry x="880" y="520" width="40" height="40" as="geometry" />
        </mxCell>
        <mxCell id="P-tXXhi0y3CasbpAHLjE-94" value="603280" style="rounded=0;whiteSpace=wrap;html=1;" parent="1" vertex="1">
          <mxGeometry x="920" y="520" width="40" height="40" as="geometry" />
        </mxCell>
        <mxCell id="P-tXXhi0y3CasbpAHLjE-95" value="^" style="rounded=0;whiteSpace=wrap;html=1;" parent="1" vertex="1">
          <mxGeometry x="960" y="520" width="39" height="40" as="geometry" />
        </mxCell>
        <mxCell id="P-tXXhi0y3CasbpAHLjE-97" value="" style="endArrow=classic;html=1;rounded=0;edgeStyle=orthogonalEdgeStyle;curved=1;entryX=1;entryY=0.25;entryDx=0;entryDy=0;" parent="1" edge="1">
          <mxGeometry width="50" height="50" relative="1" as="geometry">
            <mxPoint x="939" y="560" as="sourcePoint" />
            <mxPoint x="759" y="530" as="targetPoint" />
            <Array as="points">
              <mxPoint x="939" y="570" />
              <mxPoint x="819" y="570" />
              <mxPoint x="819" y="530" />
            </Array>
          </mxGeometry>
        </mxCell>
        <mxCell id="P-tXXhi0y3CasbpAHLjE-98" value="" style="endArrow=classic;html=1;rounded=0;entryX=0;entryY=0.75;entryDx=0;entryDy=0;" parent="1" edge="1">
          <mxGeometry width="50" height="50" relative="1" as="geometry">
            <mxPoint x="760" y="539.5" as="sourcePoint" />
            <mxPoint x="840" y="539.5" as="targetPoint" />
          </mxGeometry>
        </mxCell>
        <mxCell id="P-tXXhi0y3CasbpAHLjE-99" value="" style="endArrow=classic;html=1;rounded=0;entryX=0.5;entryY=0;entryDx=0;entryDy=0;dashed=1;" parent="1" edge="1">
          <mxGeometry width="50" height="50" relative="1" as="geometry">
            <mxPoint x="909" y="560" as="sourcePoint" />
            <mxPoint x="670" y="841" as="targetPoint" />
          </mxGeometry>
        </mxCell>
        <mxCell id="P-tXXhi0y3CasbpAHLjE-100" value="" style="endArrow=classic;html=1;rounded=0;entryX=0.5;entryY=1;entryDx=0;entryDy=0;dashed=1;" parent="1" edge="1">
          <mxGeometry width="50" height="50" relative="1" as="geometry">
            <mxPoint x="630" y="841" as="sourcePoint" />
            <mxPoint x="870" y="561" as="targetPoint" />
          </mxGeometry>
        </mxCell>
        <mxCell id="P-tXXhi0y3CasbpAHLjE-101" value="" style="endArrow=classic;html=1;rounded=0;entryX=0.5;entryY=0;entryDx=0;entryDy=0;dashed=1;" parent="1" target="P-tXXhi0y3CasbpAHLjE-93" edge="1">
          <mxGeometry width="50" height="50" relative="1" as="geometry">
            <mxPoint x="260" y="200" as="sourcePoint" />
            <mxPoint x="310" y="150" as="targetPoint" />
          </mxGeometry>
        </mxCell>
        <mxCell id="P-tXXhi0y3CasbpAHLjE-102" value="" style="endArrow=classic;html=1;rounded=0;entryX=0.5;entryY=1;entryDx=0;entryDy=0;dashed=1;" parent="1" target="P-tXXhi0y3CasbpAHLjE-19" edge="1">
          <mxGeometry width="50" height="50" relative="1" as="geometry">
            <mxPoint x="860" y="520" as="sourcePoint" />
            <mxPoint x="910" y="470" as="targetPoint" />
          </mxGeometry>
        </mxCell>
      </root>
    </mxGraphModel>
  </diagram>
</mxfile>
